<svg xmlns="http://www.w3.org/2000/svg" xmlns:xlink="http://www.w3.org/1999/xlink" width="630.83" height="699.79" viewBox="0 0 630.83 699.79"><defs><style>.cls-1{fill:#fcfcfc;filter:url(#luminosity-invert-noclip);}.cls-2{mask:url(#mask);}.cls-3{fill:#708ff6;}</style><filter id="luminosity-invert-noclip" x="0" y="0" width="630.83" height="699.79" filterUnits="userSpaceOnUse" color-interpolation-filters="sRGB"><feColorMatrix values="-1 0 0 0 1 0 -1 0 0 1 0 0 -1 0 1 0 0 0 1 0" result="invert"/><feFlood flood-color="#fff" result="bg"/><feBlend in="invert" in2="bg"/></filter><mask id="mask" x="0" y="0" width="630.83" height="699.79" maskUnits="userSpaceOnUse"><path id="path370228" class="cls-1" d="M443.67,459.9v-223a26.18,26.18,0,0,0-44-18.5c-5,5-7,11-7,18.5v141a55.63,55.63,0,0,1-10,32.5c-6.5,10-15.5,17.5-27,23-11.5,6-24.5,8.5-38,8.5-24.5,0-43.5-6.5-58-20.5s-21.5-34.5-21.5-61.5v-123a25.61,25.61,0,0,0-25.5-25.5,24.87,24.87,0,0,0-18.5,7.5c-5,5-7,11-7,18v123c0,27.5,5,50.5,15.5,69.5,10,19,24.5,34,43,43.5,17.5,10,36.5,15,57.5,15.5h117a22.67,22.67,0,0,0,16.5-7,23,23,0,0,0,7-17Z"/></mask></defs><g id="Calque_2" data-name="Calque 2"><g id="logo"><g class="cls-2"><path class="cls-3" d="M630.35,216.11c0-26.71-18.94-59.25-42.25-72.85L357.42,10.2c-23.31-13.6-61.19-13.6-84,0L42.25,143.75C18.94,157.34,0,189.88,0,216.59V483.2c0,26.71,18.94,59.25,42.25,72.85L273.41,689.59c23.31,13.6,61.19,13.6,84,0L588.58,556.05c23.31-13.6,42.25-46.14,42.25-72.85V216.11Z"/></g></g></g></svg>