<svg xmlns="http://www.w3.org/2000/svg" xmlns:xlink="http://www.w3.org/1999/xlink" width="1746.83" height="1032.34" viewBox="0 0 1746.83 1032.34"><defs><style>.cls-1{fill:#fcfcfc;filter:url(#luminosity-invert-noclip);}.cls-2{fill:#a0e5fd;}.cls-3{fill:#5864f3;}.cls-4{fill:#647af5;}.cls-5{fill:#708ff6;}.cls-6{fill:#7ca5f8;}.cls-7{fill:#88bafa;}.cls-8{fill:#94d0fb;}.cls-9{mask:url(#mask);}</style><filter id="luminosity-invert-noclip" x="558" y="0" width="630.83" height="699.79" filterUnits="userSpaceOnUse" color-interpolation-filters="sRGB"><feColorMatrix values="-1 0 0 0 1 0 -1 0 0 1 0 0 -1 0 1 0 0 0 1 0" result="invert"/><feFlood flood-color="#fff" result="bg"/><feBlend in="invert" in2="bg"/></filter><mask id="mask" x="558" y="0" width="630.83" height="699.79" maskUnits="userSpaceOnUse"><path id="path370228" class="cls-1" d="M1001.67,459.9v-223a26.19,26.19,0,0,0-44-18.5c-5,5-7,11-7,18.5v141a55.63,55.63,0,0,1-10,32.5c-6.5,10-15.5,17.5-27,23-11.5,6-24.5,8.5-38,8.5-24.5,0-43.5-6.5-58-20.5s-21.5-34.5-21.5-61.5v-123a25.61,25.61,0,0,0-25.5-25.5,24.87,24.87,0,0,0-18.5,7.5c-5,5-7,11-7,18v123c0,27.5,5,50.5,15.5,69.5,10,19,24.5,34,43,43.5,17.5,10,36.5,15,57.5,15.5h117a22.71,22.71,0,0,0,16.51-7,23,23,0,0,0,7-17Z"/></mask></defs><g id="Calque_2" data-name="Calque 2"><g id="crustil"><path id="path370236" class="cls-2" d="M1643.83,645.84c-5,5-7,11-7,18v273c0,18,3,34,9.5,48a75.69,75.69,0,0,0,26.5,33c11.5,8,24.5,11.5,39,11.5h1c10,0,18-2,24.5-7,6-4.5,9.5-10.5,9.5-18a28.31,28.31,0,0,0-6.5-18,20.79,20.79,0,0,0-16-7h-12.5q-11.25,0-18-12c-5-8-7-18-7-30.5v-273a24,24,0,0,0-25-25c-7.5,0-13.5,2.5-18,7Z"/><path id="path370224" class="cls-3" d="M233.5,798.84c-26-30-59-45-98-45-26,0-49.5,6-70,18A124.8,124.8,0,0,0,17,821.34c-11.5,21-17,45-17,71.5,0,26,5.5,50,17.5,71a130.73,130.73,0,0,0,49.5,49.5c21,12,44.5,18,71,18,36,0,66-11,90-33.5q6-6,6-13.5c0-6.5-3.5-12.5-9.5-18a21.59,21.59,0,0,0-13-4.5c-6,0-12.5,2.5-18.5,7-14,12-32.5,17.5-55,17.5q-26.25,0-46.5-12a83.37,83.37,0,0,1-31.5-33c-7.5-14-11-30.5-11-48.5,0-28,8-51,24-68s36.5-26,62.5-26a88.87,88.87,0,0,1,33.5,6.5c10,4,19,10.5,27.5,19.5a24.19,24.19,0,0,0,19.5,9,19.46,19.46,0,0,0,11.5-3.5c7-5,11-11,11-18.5C238.5,806.84,236.5,802.84,233.5,798.84Z"/><path id="path370226" class="cls-4" d="M511.12,760.84c-10-5-24-8-41.5-8a113.16,113.16,0,0,0-47,10,108.62,108.62,0,0,0-37,27.5v-9.5c0-16.5-8.5-25-25-25-8,0-14.5,2.5-18.5,6.5-4.5,4.5-6.5,10.5-6.5,18.5v223.5c0,8.5,2,15,6.5,19,4,4,10.5,6,18.5,6s14.5-2,18.5-6.5c4-4,6.5-10.5,6.5-18.5v-146c0-18.5,7-33.5,22-44.5,14.5-11,34-16.5,58-16.5,8,0,19,1.5,32.5,3.5a22.1,22.1,0,0,0,7.5,1c10,0,17-5,20-16,0-1,.5-2.5.5-5,0-8-5-14.5-15-20Z"/><path id="path370228-2" data-name="path370228" class="cls-5" d="M850.62,1003.84v-223a26.18,26.18,0,0,0-44-18.5c-5,5-7,11-7,18.5v141a55.63,55.63,0,0,1-10,32.5c-6.5,10-15.5,17.5-27,23-11.5,6-24.5,8.5-38,8.5-24.5,0-43.5-6.5-58-20.5s-21.5-34.5-21.5-61.5v-123a25.61,25.61,0,0,0-25.5-25.5,24.87,24.87,0,0,0-18.5,7.5c-5,5-7,11-7,18v123c0,27.5,5,50.5,15.5,69.5,10,19,24.5,34,43,43.5,17.5,10,36.5,15,57.5,15.5h117a22.67,22.67,0,0,0,16.5-7,23,23,0,0,0,7-17Z"/><path id="path370230" class="cls-6" d="M1115.28,764.34c-17-7-36.5-10.5-58-10.5a147.87,147.87,0,0,0-50,8.5c-16,6-28.5,14.5-38,25.5-10,11.5-14.5,25.5-14.5,41.5,0,40.5,32,67,96,79,24.5,5,42,10.5,52.5,17.5,10,7,15.5,15.5,15.5,25.5,0,11-5.5,19.5-16,25.5-10.5,6.5-25,9.5-44,9.5a108,108,0,0,1-40.5-7.5c-13-5-22.5-11.5-28.51-18.5-6-6-12.5-9-19-9-5.5,0-11.5,2.5-17.5,7-7,5-10,11.5-10,19.5,0,6,2,11.5,6.5,15.5,11,11.5,27,20.5,47,27.5a191,191,0,0,0,64,10.5c22.5,0,42-3.5,58-10.5s28.5-17,37-29.5a76.69,76.69,0,0,0,12.5-42c0-20.5-8-37.5-23-50.5s-41-23-77-30.5c-18-3.5-31.5-7-40.5-11-9.5-4-16-8-19-12.5-3.5-4.5-5-10-5-17,0-9,4.5-16.5,14.5-21.5s22.5-8,38-8a113.39,113.39,0,0,1,34,5c9,3,18,8.5,26.5,16,7,6.5,14.5,9.5,23.5,9.5,5.5,0,10-1,14-4,5.5-4.5,8.5-9.5,8.5-15.5,0-5-2.5-10.5-6.5-16-10-12-24-22-41-29Z"/><path id="path370232" class="cls-7" d="M1265.09,765.84v166.5c0,18.5,3.51,35,11.51,49.5a85.55,85.55,0,0,0,31.5,35c13.5,8.5,28.5,12.5,45,12.5h9c8.5,0,15.5-2,21-7a22.29,22.29,0,0,0,8.5-18,28.31,28.31,0,0,0-6.5-18,19.47,19.47,0,0,0-15-7h-17q-16.5,0-27-13.5c-7.5-9-11-20-11-33.5V808.84h42.5c7,0,12.5-2,17-6a20.78,20.78,0,0,0,6.5-15,22.24,22.24,0,0,0-6.5-16c-4.5-4-10-6-17-6h-42.5v-72a24,24,0,0,0-25-25c-7.5,0-13.5,2.5-18,7-5,5-7,11-7,18Z"/><path id="path370234" class="cls-8" d="M1486.63,762.84c-5,5-7,11-7,18.5v222.5c0,7.5,2,13.5,7,18.5s11,7,18.5,7,13.5-2,18.5-7a26.54,26.54,0,0,0,7-18.5V781.34a26.18,26.18,0,0,0-44-18.5Z"/></g><g id="logo"><g class="cls-9"><path class="cls-5" d="M1188.35,216.11c0-26.71-18.94-59.25-42.25-72.85L915.42,10.2c-23.31-13.6-61.19-13.6-84,0L600.25,143.75C576.94,157.34,558,189.88,558,216.59V483.2c0,26.71,18.94,59.25,42.25,72.85L831.41,689.59c23.31,13.6,61.19,13.6,84,0l231.16-133.54c23.31-13.6,42.25-46.14,42.25-72.85V216.11Z"/></g></g></g></svg>