<?xml version="1.0" encoding="utf-8"?>
<!-- Generator: Adobe Illustrator 25.4.1, SVG Export Plug-In . SVG Version: 6.00 Build 0)  -->
<svg version="1.1" xmlns="http://www.w3.org/2000/svg" xmlns:xlink="http://www.w3.org/1999/xlink" x="0px" y="0px"
	 viewBox="0 0 1920 1080" style="enable-background:new 0 0 1920 1080;" xml:space="preserve">
<style type="text/css">
	.st0{fill:#A0E5FD;}
	.st1{fill:#5864F3;}
	.st2{fill:#647AF5;}
	.st3{fill:#708FF6;}
	.st4{fill:#7CA5F8;}
	.st5{fill:#88BAFA;}
	.st6{fill:#94D0FB;}
	.st7{filter:url(#Adobe_OpacityMaskFilter);}
	.st8{fill:#FCFCFC;}
	.st9{mask:url(#SVGID_1_);fill:#708FF6;}
</style>
<g id="crustil">
	<path id="path370236" class="st0" d="M1730.4,670.4c-5,5-7,11-7,18v273c0,18,3,34,9.5,48c6,14,15,25,26.5,33
		c11.5,8,24.5,11.5,39,11.5h1c10,0,18-2,24.5-7c6-4.5,9.5-10.5,9.5-18c0-7-2.5-13-6.5-18c-4-4.5-9.5-7-16-7h-12.5
		c-7.5,0-13.5-4-18-12c-5-8-7-18-7-30.5v-273c0-7-2.5-13-7-18c-5-4.5-11-7-18-7C1740.9,663.4,1734.9,665.9,1730.4,670.4
		L1730.4,670.4z"/>
	<path id="path370224" class="st1" d="M320.1,823.4c-26-30-59-45-98-45c-26,0-49.5,6-70,18c-21,12-37,28.5-48.5,49.5
		c-11.5,21-17,45-17,71.5c0,26,5.5,50,17.5,71s28.5,37.5,49.5,49.5c21,12,44.5,18,71,18c36,0,66-11,90-33.5c4-4,6-8.5,6-13.5
		c0-6.5-3.5-12.5-9.5-18c-4-3-8.5-4.5-13-4.5c-6,0-12.5,2.5-18.5,7c-14,12-32.5,17.5-55,17.5c-17.5,0-33-4-46.5-12
		c-13.5-8-24-19-31.5-33c-7.5-14-11-30.5-11-48.5c0-28,8-51,24-68s36.5-26,62.5-26c12.5,0,23.5,2.5,33.5,6.5c10,4,19,10.5,27.5,19.5
		c5,6,11.5,9,19.5,9c4,0,8-1,11.5-3.5c7-5,11-11,11-18.5C325.1,831.4,323.1,827.4,320.1,823.4z"/>
	<path id="path370226" class="st2" d="M597.7,785.4c-10-5-24-8-41.5-8c-17,0-32.5,3.5-47,10c-15,7-27,16-37,27.5v-9.5
		c0-16.5-8.5-25-25-25c-8,0-14.5,2.5-18.5,6.5c-4.5,4.5-6.5,10.5-6.5,18.5v223.5c0,8.5,2,15,6.5,19c4,4,10.5,6,18.5,6
		c8,0,14.5-2,18.5-6.5c4-4,6.5-10.5,6.5-18.5v-146c0-18.5,7-33.5,22-44.5c14.5-11,34-16.5,58-16.5c8,0,19,1.5,32.5,3.5
		c3,1,5.5,1,7.5,1c10,0,17-5,20-16c0-1,0.5-2.5,0.5-5C612.7,797.4,607.7,790.9,597.7,785.4L597.7,785.4z"/>
	<path id="path370228" class="st3" d="M937.2,1028.4v-223c0-7.5-2.5-13.5-7-18.5c-5-4.5-11-7-18.5-7c-7.5,0-13.5,2.5-18.5,7
		c-5,5-7,11-7,18.5v141c0,12.5-3.5,23-10,32.5c-6.5,10-15.5,17.5-27,23c-11.5,6-24.5,8.5-38,8.5c-24.5,0-43.5-6.5-58-20.5
		c-14.5-14-21.5-34.5-21.5-61.5v-123c0-7-2.5-13-7.5-18c-5-5-11-7.5-18-7.5c-7.5,0-13.5,2.5-18.5,7.5c-5,5-7,11-7,18v123
		c0,27.5,5,50.5,15.5,69.5c10,19,24.5,34,43,43.5c17.5,10,36.5,15,57.5,15.5c1,0,39.5,0,117,0c6.5,0,12-2.5,16.5-7
		c4.5-4.5,7-10,7-17V1028.4z"/>
	<path id="path370230" class="st4" d="M1201.9,788.9c-17-7-36.5-10.5-58-10.5c-18,0-34.5,3-50,8.5c-16,6-28.5,14.5-38,25.5
		c-10,11.5-14.5,25.5-14.5,41.5c0,40.5,32,67,96,79c24.5,5,42,10.5,52.5,17.5c10,7,15.5,15.5,15.5,25.5c0,11-5.5,19.5-16,25.5
		c-10.5,6.5-25,9.5-44,9.5c-14.5,0-28-2.5-40.5-7.5c-13-5-22.5-11.5-28.5-18.5c-6-6-12.5-9-19-9c-5.5,0-11.5,2.5-17.5,7
		c-7,5-10,11.5-10,19.5c0,6,2,11.5,6.5,15.5c11,11.5,27,20.5,47,27.5s41,10.5,64,10.5c22.5,0,42-3.5,58-10.5s28.5-17,37-29.5
		c8-12.5,12.5-26.5,12.5-42c0-20.5-8-37.5-23-50.5c-15-13-41-23-77-30.5c-18-3.5-31.5-7-40.5-11c-9.5-4-16-8-19-12.5
		c-3.5-4.5-5-10-5-17c0-9,4.5-16.5,14.5-21.5s22.5-8,38-8c13,0,24.5,2,34,5c9,3,18,8.5,26.5,16c7,6.5,14.5,9.5,23.5,9.5
		c5.5,0,10-1,14-4c5.5-4.5,8.5-9.5,8.5-15.5c0-5-2.5-10.5-6.5-16C1232.9,805.9,1218.9,795.9,1201.9,788.9L1201.9,788.9z"/>
	<path id="path370232" class="st5" d="M1351.7,790.4v43v123.5c0,18.5,3.5,35,11.5,49.5c7.5,15,18,26.5,31.5,35
		c13.5,8.5,28.5,12.5,45,12.5h9c8.5,0,15.5-2,21-7c5.5-4.5,8.5-10.5,8.5-18c0-7-2.5-13-6.5-18c-4-4.5-9-7-15-7h-17
		c-11,0-20-4.5-27-13.5c-7.5-9-11-20-11-33.5V833.4h42.5c7,0,12.5-2,17-6c4-4,6.5-9,6.5-15c0-6.5-2.5-12-6.5-16c-4.5-4-10-6-17-6
		h-42.5v-72c0-7-2.5-13-7-18c-5-4.5-11-7-18-7c-7.5,0-13.5,2.5-18,7c-5,5-7,11-7,18L1351.7,790.4z"/>
	<path id="path370234" class="st6" d="M1573.2,787.4c-5,5-7,11-7,18.5v222.5c0,7.5,2,13.5,7,18.5c5,5,11,7,18.5,7
		c7.5,0,13.5-2,18.5-7c4.5-5,7-11,7-18.5V805.9c0-7.5-2.5-13.5-7-18.5c-5-4.5-11-7-18.5-7C1584.2,780.4,1578.2,782.9,1573.2,787.4z"
		/>
</g>
<g id="logo">
	<defs>
		<filter id="Adobe_OpacityMaskFilter" filterUnits="userSpaceOnUse" x="644.6" y="24.5" width="630.8" height="699.8">
			
				<feColorMatrix  type="matrix" values="-1 0 0 0 1  0 -1 0 0 1  0 0 -1 0 1  0 0 0 1 0" color-interpolation-filters="sRGB" result="source"/>
			<feFlood  style="flood-color:white;flood-opacity:1" result="back"/>
			<feBlend  in="source" in2="back" mode="normal"/>
		</filter>
	</defs>
	<mask maskUnits="userSpaceOnUse" x="644.6" y="24.5" width="630.8" height="699.8" id="SVGID_1_">
		<g class="st7">
			<path id="path370228_00000035506090144431105700000004506929448858701697_" class="st8" d="M1088.3,484.4v-223
				c0-7.5-2.5-13.5-7-18.5c-5-4.5-11-7-18.5-7s-13.5,2.5-18.5,7c-5,5-7,11-7,18.5v141c0,12.5-3.5,23-10,32.5
				c-6.5,10-15.5,17.5-27,23c-11.5,6-24.5,8.5-38,8.5c-24.5,0-43.5-6.5-58-20.5c-14.5-14-21.5-34.5-21.5-61.5v-123
				c0-7-2.5-13-7.5-18c-5-5-11-7.5-18-7.5c-7.5,0-13.5,2.5-18.5,7.5c-5,5-7,11-7,18v123c0,27.5,5,50.5,15.5,69.5
				c10,19,24.5,34,43,43.5c17.5,10,36.5,15,57.5,15.5c1,0,39.5,0,117,0c6.5,0,12-2.5,16.5-7c4.5-4.5,7-10,7-17V484.4z"/>
		</g>
	</mask>
	<path class="st9" d="M1274.9,240.6c0-26.7-18.9-59.2-42.2-72.8L1002,34.7c-23.3-13.6-61.2-13.6-84,0L686.8,168.3
		c-23.3,13.6-42.2,46.1-42.2,72.8v266.6c0,26.7,18.9,59.2,42.2,72.8L918,714.1c23.3,13.6,61.2,13.6,84,0l231.2-133.5
		c23.3-13.6,42.2-46.1,42.2-72.8V240.6H1274.9z"/>
</g>
</svg>
