<svg data-v-1892154e="" version="1.0" xmlns="http://www.w3.org/2000/svg" xmlns:xlink="http://www.w3.org/1999/xlink"
  width="100%" height="100%" viewBox="0 0 340.000000 250.000000" preserveAspectRatio="xMidYMid meet"
  color-interpolation-filters="sRGB" style="margin: auto;">
  <rect data-v-1892154e="" x="0" y="0" width="100%" height="100%" fill="#fed35c" fill-opacity="1" class="background">
  </rect>
  <rect data-v-1892154e="" x="0" y="0" width="100%" height="100%" fill="url(#watermark)" fill-opacity="1"
    class="watermarklayer"></rect>
  <g data-v-1892154e="" fill="#333333" class="icon-text-wrapper icon-svg-group iconsvg"
    transform="translate(114.43029427528381,50.70038604736328)">
    <g fill="#333333" class="iconsvg-imagesvg icon_container" transform="translate(11.544380187988281,0)">
      <rect fill="#333333" fill-opacity="0" stroke-width="2" x="0" y="0" width="88.04123711340208"
        height="88.04123711340208" class="image-rect"></rect> <svg viewBox="0 0 60 60" x="0" y="0"
        width="88.04123711340208" height="88.04123711340208" class="image-svg-svg bn">
        <g hollow-target="">
          <g><svg xmlns="http://www.w3.org/2000/svg" xmlns:xlink="http://www.w3.org/1999/xlink" xml:space="preserve"
              version="1.1"
              style="shape-rendering:geometricPrecision;text-rendering:geometricPrecision;image-rendering:optimizeQuality;"
              viewBox="0 0 333 333" x="0" y="0" fill-rule="evenodd" clip-rule="evenodd" width="60" height="60"
              filtersec="colorsf5180926779">
              <defs></defs>
              <g>
                <path class="fil0"
                  d="M79 0l175 0c22,0 42,9 56,23l0 0 0 0c14,15 23,34 23,56l0 175c0,22 -9,42 -23,56l0 0 0 0c-14,14 -34,23 -56,23l-175 0c-22,0 -41,-9 -56,-23l0 0 0 0c-14,-14 -23,-34 -23,-56l0 -175c0,-22 9,-41 23,-56l0 0 0 0c15,-14 34,-23 56,-23zm175 16l-175 0c-17,0 -33,7 -44,19l0 0c-12,11 -19,27 -19,44l0 175c0,18 7,33 19,45l0 0c11,11 27,18 44,18l175 0c18,0 33,-7 45,-18l0 0c11,-12 18,-27 18,-45l0 -175c0,-17 -7,-33 -18,-44l0 0c-12,-12 -27,-19 -45,-19z">
                </path>
              </g>
            </svg></g>
          <g filter="url(#colors3748404267)"><svg xmlns="http://www.w3.org/2000/svg"
              xmlns:xlink="http://www.w3.org/1999/xlink" viewBox="0 0 27.38671875 61.1015625" width="55" height="55"
              x="2.5" y="2.5">
              <path transform="translate(-3.48046875 60.57421875)"
                d="M18.07 0.53L18.07 0.53Q16.66 0.53 15.03 0.30Q13.39 0.07 11.76-0.67Q10.13-1.41 8.63-2.76Q7.14-4.11 5.99-6.33Q4.85-8.54 4.17-11.79Q3.48-15.05 3.48-19.55L3.48-19.55L3.48-40.82Q3.48-45.35 4.18-48.57Q4.89-51.79 6.05-53.98Q7.21-56.18 8.72-57.48Q10.23-58.78 11.85-59.47Q13.46-60.15 15.06-60.36Q16.66-60.57 18.04-60.57L18.04-60.57Q21.62-60.57 24.03-59.57Q26.44-58.57 27.90-56.83Q29.36-55.09 29.97-52.77Q30.59-50.45 30.59-47.85L30.59-47.85Q30.59-45.91 30.39-44.28Q30.20-42.64 29.81-40.68L29.81-40.68L22.43-40.68L22.43-43.73Q22.43-48.69 21.34-51.15Q20.25-53.61 18.14-53.61L18.14-53.61Q16.88-53.61 15.93-53.12Q14.98-52.63 14.34-51.45Q13.71-50.27 13.38-48.34Q13.04-46.41 13.04-43.52L13.04-43.52L13.04-16.10Q13.04-13.29 13.31-11.43Q13.57-9.56 14.17-8.44Q14.77-7.31 15.73-6.84Q16.70-6.36 18.07-6.36L18.07-6.36Q18.95-6.36 19.76-6.77Q20.57-7.17 21.18-8.03Q21.80-8.89 22.17-10.21Q22.54-11.53 22.54-13.32L22.54-13.32L22.54-19.20L30.87-19.20L30.87-13.64Q30.87-6.40 27.56-2.95Q24.26 0.49 18.07 0.53Z">
              </path>
            </svg></g>
        </g>
      </svg>
      <defs>
        <filter id="colors3748404267">
          <feColorMatrix type="matrix" values="0 0 0 0 0.19921875  0 0 0 0 0.19921875  0 0 0 0 0.19921875  0 0 0 1 0"
            class="icon-fecolormatrix"></feColorMatrix>
        </filter>
        <filter id="colorsf5180926779">
          <feColorMatrix type="matrix" values="0 0 0 0 0.99609375  0 0 0 0 0.99609375  0 0 0 0 0.99609375  0 0 0 1 0"
            class="icon-fecolormatrix"></feColorMatrix>
        </filter>
        <filter id="colorsb9025223536">
          <feColorMatrix type="matrix" values="0 0 0 0 0  0 0 0 0 0  0 0 0 0 0  0 0 0 1 0" class="icon-fecolormatrix">
          </feColorMatrix>
        </filter>
      </defs>
    </g>
    <g transform="translate(0,93.0412368774414)">
      <g data-gra="path-name" fill-rule="" class="tp-name iconsvg-namesvg" transform="translate(0,0)">
        <g transform="scale(1)">
          <g>
            <path
              d="M11.29 0.33L11.29 0.33Q10.42 0.33 9.39 0.19Q8.37 0.04 7.35-0.42Q6.33-0.88 5.39-1.72Q4.46-2.57 3.75-3.96Q3.03-5.34 2.60-7.37Q2.18-9.40 2.18-12.22L2.18-12.22L2.18-25.51Q2.18-28.34 2.61-30.36Q3.05-32.37 3.78-33.74Q4.50-35.11 5.45-35.93Q6.39-36.74 7.40-37.17Q8.42-37.60 9.42-37.73Q10.42-37.86 11.27-37.86L11.27-37.86Q13.51-37.86 15.02-37.23Q16.52-36.61 17.44-35.52Q18.35-34.43 18.73-32.98Q19.12-31.53 19.12-29.90L19.12-29.90Q19.12-28.70 19.00-27.67Q18.87-26.65 18.63-25.42L18.63-25.42L14.02-25.42L14.02-27.33Q14.02-30.43 13.34-31.97Q12.66-33.51 11.34-33.51L11.34-33.51Q10.55-33.51 9.95-33.20Q9.36-32.89 8.96-32.16Q8.57-31.42 8.36-30.21Q8.15-29.00 8.15-27.20L8.15-27.20L8.15-10.06Q8.15-8.31 8.32-7.14Q8.48-5.98 8.85-5.27Q9.23-4.57 9.83-4.27Q10.44-3.98 11.29-3.98L11.29-3.98Q11.84-3.98 12.35-4.23Q12.85-4.48 13.24-5.02Q13.62-5.56 13.85-6.38Q14.08-7.21 14.08-8.33L14.08-8.33L14.08-12.00L19.29-12.00L19.29-8.53Q19.29-4.00 17.23-1.85Q15.16 0.31 11.29 0.33ZM23.42 0L23.42-30.26L27.49-30.26L27.97-27.18Q28.89-28.89 30.09-29.75Q31.29-30.61 32.54-30.61L32.54-30.61Q34.94-30.61 36.08-29.14Q37.22-27.66 37.22-24.72L37.22-24.72Q37.22-24.35 37.17-23.83Q37.11-23.31 37.01-22.75Q36.91-22.19 36.77-21.63Q36.63-21.07 36.47-20.61L36.47-20.61L32.61-20.61L32.61-23.42Q32.61-24.35 32.49-24.94Q32.37-25.53 32.17-25.89Q31.97-26.26 31.71-26.40Q31.44-26.54 31.14-26.54L31.14-26.54Q30.48-26.54 29.92-26.11Q29.36-25.69 28.98-24.92L28.98-24.92L28.98 0L23.42 0ZM40.78-7.08L40.78-30.26L46.34-30.26L46.34-7.51Q46.34-5.52 46.96-4.74Q47.57-3.96 48.76-3.96L48.76-3.96Q49.59-3.96 50.38-4.42Q51.17-4.88 51.81-5.73L51.81-5.73L51.81-30.26L57.37-30.26L57.37 0L53.13 0L52.58-3.23L52.56-3.23Q51.90-2.20 51.16-1.51Q50.43-0.81 49.63-0.41Q48.82 0 47.99 0.18Q47.15 0.35 46.32 0.35L46.32 0.35Q43.66 0.35 42.22-1.49Q40.78-3.34 40.78-7.08L40.78-7.08ZM61.98-6.33L61.98-6.33Q61.98-7.32 62.17-8.24Q62.36-9.16 62.53-9.71L62.53-9.71L66.45-9.71Q66.45-8.06 66.61-6.95Q66.77-5.84 67.15-5.19Q67.52-4.53 68.15-4.24Q68.77-3.96 69.68-3.96L69.68-3.96Q70.93-3.96 71.50-4.66Q72.07-5.36 72.07-6.28L72.07-6.28Q72.07-6.77 71.94-7.21Q71.81-7.65 71.56-8.10Q71.32-8.55 70.97-9.01Q70.62-9.47 70.18-10.02L70.18-10.02L66.12-14.81Q65.32-15.80 64.59-16.82Q63.85-17.84 63.29-18.93Q62.73-20.02 62.39-21.20Q62.05-22.39 62.05-23.71L62.05-23.71Q62.05-25.47 62.66-26.76Q63.26-28.06 64.28-28.92Q65.30-29.77 66.64-30.19Q67.98-30.61 69.48-30.61L69.48-30.61Q71.13-30.61 72.44-30.21Q73.76-29.82 74.71-29.03Q75.65-28.23 76.16-27.06Q76.66-25.88 76.66-24.32L76.66-24.32Q76.66-23.27 76.48-22.28Q76.29-21.29 76.11-20.59L76.11-20.59L72.27-20.59Q72.25-22.08 72.14-23.20Q72.03-24.32 71.73-25.06Q71.43-25.80 70.92-26.17Q70.40-26.54 69.57-26.54L69.57-26.54Q68.84-26.54 68.36-26.31Q67.87-26.08 67.58-25.71Q67.28-25.33 67.16-24.87Q67.04-24.41 67.04-23.93L67.04-23.93Q67.04-22.87 67.54-21.97Q68.05-21.07 68.88-20.02L68.88-20.02L73.32-14.81Q73.81-14.22 74.44-13.37Q75.08-12.52 75.65-11.50Q76.22-10.48 76.62-9.27Q77.01-8.06 77.01-6.75L77.01-6.75Q77.01-5.14 76.51-3.83Q76.00-2.53 75.01-1.60Q74.03-0.68 72.59-0.18Q71.15 0.33 69.30 0.33L69.30 0.33Q67.79 0.33 66.45-0.01Q65.10-0.35 64.12-1.13Q63.13-1.91 62.56-3.19Q61.98-4.46 61.98-6.33ZM82.02-7.54L82.02-26.30L79.67-26.30L79.67-30.26L82.51-30.26L83.63-38.10L87.58-38.10L87.58-30.26L92.42-30.26L92.42-26.30L87.58-26.30L87.58-7.05Q87.58-6.06 87.77-5.46Q87.96-4.86 88.29-4.52Q88.62-4.17 89.06-4.06Q89.49-3.96 89.98-3.96L89.98-3.96Q90.79-3.96 91.42-4.15Q92.04-4.35 92.61-4.70L92.61-4.70L92.61-1.63Q92.13-1.03 91.57-0.66Q91.01-0.29 90.42-0.05Q89.82 0.18 89.21 0.26Q88.59 0.35 88.00 0.35L88.00 0.35Q86.84 0.35 85.76 0.04Q84.68-0.26 83.85-1.13Q83.01-2.00 82.52-3.54Q82.02-5.08 82.02-7.54L82.02-7.54ZM99.18-34.58L99.18-34.58Q97.65-34.58 96.76-35.51Q95.87-36.43 95.87-38.21L95.87-38.21Q95.87-39.20 96.10-39.87Q96.33-40.54 96.76-40.95Q97.19-41.35 97.80-41.54Q98.42-41.73 99.21-41.73L99.21-41.73Q100.85-41.73 101.71-40.89Q102.57-40.06 102.57-38.21L102.57-38.21Q102.57-36.50 101.70-35.54Q100.83-34.58 99.18-34.58ZM96.31 0L96.31-30.26L101.87-30.26L101.87 0L96.31 0ZM107.75 0L107.75-39.97L113.31-39.97L113.31 0L107.75 0Z"
              transform="translate(-2.17529296875, 41.72607421875)"></path>
          </g>
        </g>
      </g>
    </g>
  </g>
  <defs v-gra="od"></defs>
</svg>