<?xml version="1.0" encoding="utf-8"?>
<!-- Generator: Adobe Illustrator 25.4.1, SVG Export Plug-In . SVG Version: 6.00 Build 0)  -->
<svg version="1.1" id="Calque_1" xmlns="http://www.w3.org/2000/svg" xmlns:xlink="http://www.w3.org/1999/xlink" x="0px" y="0px"
	 viewBox="0 0 1920 1080" style="enable-background:new 0 0 1920 1080;" xml:space="preserve">
<style type="text/css">
	.st0{fill:#FED35C;}
	.st1{fill:#333333;fill-opacity:0;}
	.st2{fill:#333333;}
</style>
<rect x="0" class="st0" width="1920" height="1080"/>
<g transform="translate(114.43029427528381,50.70038604736328)">
	<rect x="668.1" y="181.5" class="st0" width="354.8" height="354"/>
	<g transform="translate(11.544380187988281,0)">
		<rect x="643.8" y="168.3" class="st1" width="380.3" height="380.3"/>
		<g>
			<g>
				<g>
					<path class="st2" d="M994.9,519h-351V168.8h351V519z M656.6,506.2h325.5V181.5H656.6V506.2z"/>
				</g>
				<g>
					<path class="st2" d="M679.8,491c-3.5,0-6.4-2.9-6.4-6.4V204.4c0-3.5,2.9-6.4,6.4-6.4h279.9c3.5,0,6.4,2.9,6.4,6.4
						s-2.9,6.4-6.4,6.4H686.2v273.9C686.2,488.2,683.3,491,679.8,491z"/>
				</g>
				<g>
					<path class="st2" d="M1017.8,548.2H667.6c-3.5,0-6.4-2.9-6.4-6.4s2.9-6.4,6.4-6.4h343.8V192.1c0-3.5,2.9-6.4,6.4-6.4
						s6.4,2.9,6.4,6.4v349.8C1024.2,545.4,1021.3,548.2,1017.8,548.2z"/>
				</g>
			</g>
			<g>
				<path class="st2" d="M839.1,532.4L839.1,532.4c-5.4,0-11.1-0.4-17.3-1.3c-6.2-0.9-12.4-2.7-18.6-5.5
					c-6.2-2.8-12.1-6.8-17.8-11.9c-5.7-5.1-10.7-11.9-15-20.3c-4.3-8.4-7.8-18.7-10.4-31.1c-2.6-12.4-3.9-27.1-3.9-44.2l0,0V297
					c0-17.2,1.3-31.9,4-44.1c2.7-12.2,6.2-22.5,10.6-30.8c4.4-8.3,9.5-15,15.2-19.9c5.7-4.9,11.7-8.7,17.8-11.3
					c6.1-2.6,12.2-4.3,18.3-5.1c6.1-0.8,11.7-1.2,17-1.2l0,0c13.6,0,25,1.9,34.1,5.7c9.1,3.8,16.5,9,22,15.6
					c5.5,6.6,9.5,14.3,11.8,23.1c2.4,8.8,3.5,18.1,3.5,28l0,0c0,7.4-0.4,14.1-1.1,20.3c-0.7,6.2-1.8,13.1-3.3,20.5l0,0h-42v-17.4
					c0-18.8-2.1-32.9-6.2-42.2c-4.1-9.3-10.2-14-18.2-14l0,0c-4.8,0-9,0.9-12.6,2.8c-3.6,1.9-6.6,5-9.1,9.5
					c-2.4,4.5-4.2,10.4-5.5,17.7c-1.3,7.3-1.9,16.5-1.9,27.4l0,0v156.1c0,10.7,0.5,19.5,1.5,26.6c1,7.1,2.6,12.8,4.9,17
					c2.3,4.3,5.2,7.3,8.9,9.1c3.7,1.8,8.1,2.7,13.3,2.7l0,0c3.3,0,6.5-0.8,9.6-2.3c3.1-1.5,5.8-3.9,8.1-7.2
					c2.4-3.3,4.2-7.4,5.6-12.4c1.4-5,2.1-10.9,2.1-17.7l0,0v-33.5H912v31.7c0,27.5-6.3,47.8-18.8,60.9
					C880.6,525.7,862.6,532.3,839.1,532.4z"/>
			</g>
		</g>
	</g>
	<g transform="translate(0,93.0412368774414)">
		<g transform="translate(0,0)">
			<g transform="scale(1)">
				<g>
					<path class="st2" d="M644.9,658.9L644.9,658.9c-2.5,0-5.2-0.2-8.2-0.6c-2.9-0.4-5.9-1.3-8.8-2.6c-2.9-1.3-5.8-3.2-8.5-5.6
						c-2.7-2.4-5-5.7-7.1-9.7c-2.1-4-3.7-8.9-5-14.7c-1.2-5.8-1.8-12.8-1.8-21l0,0v-57.4c0-8.2,0.6-15.1,1.9-21
						c1.3-5.8,3-10.7,5.1-14.6c2.1-3.9,4.5-7.1,7.2-9.5c2.7-2.3,5.5-4.1,8.4-5.4c2.9-1.2,5.8-2,8.7-2.4c2.9-0.4,5.5-0.6,8-0.6l0,0
						c6.5,0,11.9,0.9,16.2,2.7c4.3,1.8,7.8,4.2,10.5,7.4c2.6,3.1,4.5,6.8,5.6,11c1.1,4.2,1.7,8.6,1.7,13.3l0,0
						c0,3.5-0.2,6.7-0.5,9.6c-0.4,2.9-0.9,6.2-1.6,9.7l0,0h-19.9v-8.3c0-8.9-1-15.6-2.9-20c-2-4.4-4.8-6.7-8.6-6.7l0,0
						c-2.3,0-4.3,0.4-6,1.3c-1.7,0.9-3.1,2.4-4.3,4.5c-1.1,2.1-2,4.9-2.6,8.4s-0.9,7.8-0.9,13l0,0v74c0,5,0.2,9.2,0.7,12.6
						c0.5,3.3,1.2,6,2.3,8.1c1.1,2,2.5,3.5,4.2,4.3c1.8,0.8,3.9,1.3,6.3,1.3l0,0c1.6,0,3.1-0.4,4.6-1.1c1.4-0.7,2.7-1.9,3.8-3.4
						c1.1-1.6,2-3.5,2.6-5.9c0.7-2.4,1-5.2,1-8.4l0,0v-15.9h22.5v15c0,13-3,22.7-8.9,28.9C664.6,655.7,656,658.8,644.9,658.9z
						 M697.3,657.5V526.8h17.6l2.1,13.3c2.6-4.9,5.7-8.6,9.2-11.1s7-3.7,10.6-3.7l0,0c6.9,0,12,2.1,15.3,6.4
						c3.3,4.3,4.9,10.6,4.9,19.1l0,0c0,1.1-0.1,2.3-0.2,3.8c-0.2,1.5-0.4,3.1-0.7,4.7c-0.3,1.6-0.6,3.2-1,4.8
						c-0.4,1.6-0.8,3.1-1.3,4.4l0,0H737v-12.1c0-2.7-0.2-4.9-0.5-6.6c-0.3-1.7-0.8-3.1-1.4-4.1c-0.6-1.1-1.2-1.8-2-2.2
						c-0.8-0.4-1.6-0.6-2.5-0.6l0,0c-1.9,0-3.7,0.6-5.3,1.9c-1.6,1.2-3,2.9-4.1,5.1l0,0v107.7H697.3z M772.3,626.9V526.8h24V625
						c0,5.7,0.9,9.7,2.7,12c1.8,2.2,4.3,3.4,7.8,3.4l0,0c2.4,0,4.7-0.7,7-2s4.3-3.2,6.2-5.7l0,0v-106h24v130.7h-18.3l-2.4-14h-0.1
						c-1.9,3-3.9,5.4-6,7.4c-2.1,2-4.3,3.6-6.6,4.8c-2.3,1.2-4.7,2-7.1,2.5c-2.4,0.5-4.8,0.7-7.2,0.7l0,0c-7.7,0-13.6-2.6-17.7-7.9
						C774.4,645.7,772.3,637.7,772.3,626.9L772.3,626.9z M863.9,630.1L863.9,630.1c0-2.9,0.3-5.6,0.8-8.3s1.1-4.8,1.6-6.4l0,0h16.9
						c0,4.8,0.2,8.7,0.7,11.9c0.5,3.2,1.2,5.7,2.3,7.6c1.1,1.9,2.5,3.3,4.3,4.1c1.8,0.8,4,1.2,6.6,1.2l0,0c3.6,0,6.2-1,7.9-3
						s2.5-4.3,2.5-7l0,0c0-1.4-0.2-2.8-0.6-4c-0.4-1.3-0.9-2.5-1.6-3.8c-0.7-1.3-1.5-2.6-2.5-3.9c-1-1.3-2.1-2.8-3.4-4.4l0,0
						l-17.5-20.7c-2.3-2.9-4.5-5.7-6.6-8.7c-2.1-2.9-4-6-5.6-9.1c-1.6-3.1-2.9-6.4-3.9-9.8c-1-3.4-1.5-7-1.5-10.8l0,0
						c0-5.1,0.9-9.5,2.6-13.2c1.7-3.7,4.1-6.9,7-9.3c2.9-2.4,6.3-4.3,10.2-5.5c3.9-1.2,7.9-1.8,12.3-1.8l0,0c4.8,0,9,0.6,12.8,1.7
						c3.8,1.1,7.1,2.8,9.8,5.1c2.7,2.3,4.8,5.1,6.3,8.5c1.4,3.4,2.2,7.3,2.2,11.8l0,0c0,3-0.3,6-0.8,8.8c-0.5,2.9-1.1,5.3-1.6,7.3
						l0,0h-16.6c-0.1-4.3-0.2-8-0.6-11.3c-0.3-3.2-0.9-5.9-1.8-8s-2-3.7-3.5-4.8c-1.5-1.1-3.4-1.6-5.8-1.6l0,0c-2.1,0-3.8,0.3-5.2,1
						c-1.4,0.7-2.5,1.5-3.4,2.6c-0.9,1.1-1.5,2.3-1.8,3.6c-0.3,1.3-0.5,2.7-0.5,4.1l0,0c0,3.1,0.7,5.9,2.2,8.5
						c1.5,2.6,3.4,5.4,5.8,8.4l0,0l19.2,22.5c1.4,1.7,3,3.8,4.8,6.2c1.8,2.4,3.6,5.1,5.2,8.1c1.6,2.9,3,6.1,4.2,9.6
						c1.1,3.5,1.7,7.1,1.7,10.9l0,0c0,4.6-0.7,8.8-2.2,12.6c-1.5,3.7-3.6,7-6.5,9.6c-2.8,2.6-6.3,4.7-10.5,6.1
						c-4.1,1.5-8.9,2.2-14.2,2.2l0,0c-4.3,0-8.5-0.5-12.3-1.5c-3.9-1-7.2-2.6-10.1-4.8c-2.9-2.2-5.1-5.2-6.7-8.9
						C864.7,640,863.9,635.5,863.9,630.1z M950.4,624.9v-81h-10.2v-17.1h12.3l4.8-33.9h17.1v33.9h20.9v17.1h-20.9V627
						c0,2.9,0.3,5.1,0.8,6.9c0.5,1.7,1.3,3.1,2.2,4.1c1,1,2.1,1.7,3.3,2c1.2,0.3,2.6,0.4,4,0.4l0,0c2.3,0,4.4-0.3,6.2-0.8
						c1.8-0.6,3.5-1.4,5.1-2.4l0,0v13.3c-1.4,1.7-2.9,3.1-4.5,4.2c-1.6,1.1-3.3,1.9-5,2.6c-1.7,0.7-3.5,1.1-5.2,1.3
						c-1.8,0.3-3.5,0.4-5.2,0.4l0,0c-3.3,0-6.6-0.4-9.7-1.3c-3.1-0.9-5.9-2.5-8.3-5.1c-2.4-2.5-4.3-6-5.7-10.4
						C951.2,637.8,950.4,632,950.4,624.9L950.4,624.9z M1024.6,508.1L1024.6,508.1c-4.4,0-7.9-1.3-10.5-4c-2.6-2.6-3.8-6.5-3.8-11.7
						l0,0c0-2.9,0.3-5.2,1-7.2s1.6-3.5,2.9-4.7c1.2-1.2,2.7-2,4.5-2.5c1.8-0.5,3.8-0.8,6.1-0.8l0,0c4.7,0,8.3,1.2,10.8,3.6
						c2.5,2.4,3.7,6.2,3.7,11.6l0,0c0,4.9-1.3,8.8-3.8,11.5S1029.3,508.1,1024.6,508.1z M1012.2,657.5V526.8h24v130.7H1012.2z
						 M1061.6,657.5V484.8h24v172.7H1061.6z"/>
				</g>
			</g>
		</g>
	</g>
</g>
</svg>
